# Tiled2Unity generated file. Do not modify by hand.
# Wavefront file for 'Depression_salle_02_mesh_0011.obj'

# Vertices (Count = 12)
v -160 -32 0
v -192 -32 0
v -192 0 0
v -160 0 0
v -544 -32 0
v -576 -32 0
v -576 0 0
v -544 0 0
v -64 -64 0
v -96 -64 0
v -96 -32 0
v -64 -32 0

# Texture cooridinates (Count = 4)
vt 0 0
vt 1 0
vt 1 1
vt 0 1

# Normal
vn 0 0 -1

# Mesh description
g Depression_salle_02_mesh_0011

# Faces
f 1/1/1 2/2/1 3/3/1 4/4/1
f 5/1/1 6/2/1 7/3/1 8/4/1
f 9/1/1 10/2/1 11/3/1 12/4/1

