# Tiled2Unity generated file. Do not modify by hand.
# Wavefront file for 'Oninours_Scene_01_mesh_0007.obj'

# Vertices (Count = 12)
v -352 -96 0
v -384 -96 0
v -384 -64 0
v -352 -64 0
v -288 -192 0
v -320 -192 0
v -320 -160 0
v -288 -160 0
v -320 -224 0
v -352 -224 0
v -352 -192 0
v -320 -192 0

# Texture cooridinates (Count = 4)
vt 0 0
vt 1 0
vt 1 1
vt 0 1

# Normal
vn 0 0 -1

# Mesh description
g Oninours_Scene_01_mesh_0007

# Faces
f 1/1/1 2/2/1 3/3/1 4/4/1
f 5/1/1 6/2/1 7/3/1 8/4/1
f 9/1/1 10/2/1 11/3/1 12/4/1

