# Tiled2Unity generated file. Do not modify by hand.
# Wavefront file for 'Oninours_Scene_01_mesh_0012.obj'

# Vertices (Count = 72)
v -320 -320 0
v -352 -320 0
v -352 -288 0
v -320 -288 0
v -32 -352 0
v -64 -352 0
v -64 -320 0
v -32 -320 0
v -320 -352 0
v -352 -352 0
v -352 -320 0
v -320 -320 0
v -32 -384 0
v -64 -384 0
v -64 -352 0
v -32 -352 0
v -320 -384 0
v -352 -384 0
v -352 -352 0
v -320 -352 0
v -576 -384 0
v -608 -384 0
v -608 -352 0
v -576 -352 0
v -32 -416 0
v -64 -416 0
v -64 -384 0
v -32 -384 0
v -32 -448 0
v -64 -448 0
v -64 -416 0
v -32 -416 0
v -576 -448 0
v -608 -448 0
v -608 -416 0
v -576 -416 0
v -32 -480 0
v -64 -480 0
v -64 -448 0
v -32 -448 0
v -320 -480 0
v -352 -480 0
v -352 -448 0
v -320 -448 0
v -576 -480 0
v -608 -480 0
v -608 -448 0
v -576 -448 0
v -320 -512 0
v -352 -512 0
v -352 -480 0
v -320 -480 0
v -320 -544 0
v -352 -544 0
v -352 -512 0
v -320 -512 0
v -320 -576 0
v -352 -576 0
v -352 -544 0
v -320 -544 0
v -320 -608 0
v -352 -608 0
v -352 -576 0
v -320 -576 0
v -320 -640 0
v -352 -640 0
v -352 -608 0
v -320 -608 0
v -320 -672 0
v -352 -672 0
v -352 -640 0
v -320 -640 0

# Texture cooridinates (Count = 4)
vt 0 0
vt 1 0
vt 1 1
vt 0 1

# Normal
vn 0 0 -1

# Mesh description
g Oninours_Scene_01_mesh_0012

# Faces
f 1/1/1 2/2/1 3/3/1 4/4/1
f 5/1/1 6/2/1 7/3/1 8/4/1
f 9/1/1 10/2/1 11/3/1 12/4/1
f 13/1/1 14/2/1 15/3/1 16/4/1
f 17/1/1 18/2/1 19/3/1 20/4/1
f 21/1/1 22/2/1 23/3/1 24/4/1
f 25/1/1 26/2/1 27/3/1 28/4/1
f 29/1/1 30/2/1 31/3/1 32/4/1
f 33/1/1 34/2/1 35/3/1 36/4/1
f 37/1/1 38/2/1 39/3/1 40/4/1
f 41/1/1 42/2/1 43/3/1 44/4/1
f 45/1/1 46/2/1 47/3/1 48/4/1
f 49/1/1 50/2/1 51/3/1 52/4/1
f 53/1/1 54/2/1 55/3/1 56/4/1
f 57/1/1 58/2/1 59/3/1 60/4/1
f 61/1/1 62/2/1 63/3/1 64/4/1
f 65/1/1 66/2/1 67/3/1 68/4/1
f 69/1/1 70/2/1 71/3/1 72/4/1

