# Tiled2Unity generated file. Do not modify by hand.
# Wavefront file for 'Depression_salle_01_mesh_0013.obj'

# Vertices (Count = 64)
v -640 -160 0
v -672 -160 0
v -672 -128 0
v -640 -128 0
v -672 -160 0
v -704 -160 0
v -704 -128 0
v -672 -128 0
v -704 -160 0
v -736 -160 0
v -736 -128 0
v -704 -128 0
v -736 -160 0
v -768 -160 0
v -768 -128 0
v -736 -128 0
v -640 -192 0
v -672 -192 0
v -672 -160 0
v -640 -160 0
v -672 -192 0
v -704 -192 0
v -704 -160 0
v -672 -160 0
v -704 -192 0
v -736 -192 0
v -736 -160 0
v -704 -160 0
v -736 -192 0
v -768 -192 0
v -768 -160 0
v -736 -160 0
v -32 -480 0
v -64 -480 0
v -64 -448 0
v -32 -448 0
v -64 -480 0
v -96 -480 0
v -96 -448 0
v -64 -448 0
v -96 -480 0
v -128 -480 0
v -128 -448 0
v -96 -448 0
v -128 -480 0
v -160 -480 0
v -160 -448 0
v -128 -448 0
v -32 -512 0
v -64 -512 0
v -64 -480 0
v -32 -480 0
v -64 -512 0
v -96 -512 0
v -96 -480 0
v -64 -480 0
v -96 -512 0
v -128 -512 0
v -128 -480 0
v -96 -480 0
v -128 -512 0
v -160 -512 0
v -160 -480 0
v -128 -480 0

# Texture cooridinates (Count = 16)
vt 0 0.6666667
vt 0.3333333 0.6666667
vt 0.3333333 1
vt 0 1
vt 0.6666667 0.6666667
vt 0.6666667 1
vt 1 0.6666667
vt 1 1
vt 0 0
vt 0.3333333 0
vt 0.3333333 0.3333333
vt 0 0.3333333
vt 0.6666667 0
vt 0.6666667 0.3333333
vt 1 0
vt 1 0.3333333

# Normal
vn 0 0 -1

# Mesh description
g Depression_salle_01_mesh_0013

# Faces
f 1/1/1 2/2/1 3/3/1 4/4/1
f 5/2/1 6/5/1 7/6/1 8/3/1
f 9/2/1 10/5/1 11/6/1 12/3/1
f 13/5/1 14/7/1 15/8/1 16/6/1
f 17/9/1 18/10/1 19/11/1 20/12/1
f 21/10/1 22/13/1 23/14/1 24/11/1
f 25/10/1 26/13/1 27/14/1 28/11/1
f 29/13/1 30/15/1 31/16/1 32/14/1
f 33/1/1 34/2/1 35/3/1 36/4/1
f 37/2/1 38/5/1 39/6/1 40/3/1
f 41/2/1 42/5/1 43/6/1 44/3/1
f 45/5/1 46/7/1 47/8/1 48/6/1
f 49/9/1 50/10/1 51/11/1 52/12/1
f 53/10/1 54/13/1 55/14/1 56/11/1
f 57/10/1 58/13/1 59/14/1 60/11/1
f 61/13/1 62/15/1 63/16/1 64/14/1

